<?xml version="1.0" encoding="utf-8"?>
<!-- Generator: Adobe Illustrator 24.0.0, SVG Export Plug-In . SVG Version: 6.00 Build 0)  -->
<svg version="1.1" id="Layer_91" xmlns="http://www.w3.org/2000/svg" xmlns:xlink="http://www.w3.org/1999/xlink" x="0px" y="0px"
	 viewBox="0 0 128 128" enable-background="new 0 0 128 128" xml:space="preserve">
<g>
	<path d="M102.8,20.8H68v-4c0-1.9-1.5-3.4-3.4-3.4h-1.8c-1.9,0-3.4,1.5-3.4,3.4v4H24.8C14.7,20.8,6.4,29,6.4,39.2v33.3
		c0,10.1,8.2,18.4,18.4,18.4h28.6L31.1,113c-1.3,1.3-1.4,3.5,0,4.9l1.3,1.3c1.3,1.3,3.5,1.4,4.9,0L59.4,97v15c0,1.9,1.5,3.4,3.4,3.4
		h1.8c1.9,0,3.4-1.5,3.4-3.4V97.3l22,21.9c1.3,1.3,3.5,1.4,4.9,0l1.3-1.3c1.3-1.3,1.4-3.5,0-4.9L73.9,90.8h28.9
		c10.1,0,18.4-8.2,18.4-18.4V39.2C121.2,29,112.9,20.8,102.8,20.8z M115.6,72.4c0,7.1-5.7,12.8-12.8,12.8h-78
		c-7.1,0-12.8-5.7-12.8-12.8V39.2c0-7.1,5.7-12.8,12.8-12.8h78c7.1,0,12.8,5.7,12.8,12.8V72.4z"/>
	<ellipse transform="matrix(0.3827 -0.9239 0.9239 0.3827 -31.7307 65.9741)" cx="33.5" cy="56.7" rx="7" ry="7"/>
	<ellipse transform="matrix(0.3827 -0.9239 0.9239 0.3827 -19.18 84.7576)" cx="53.8" cy="56.7" rx="7" ry="7"/>
	<ellipse transform="matrix(0.3827 -0.9239 0.9239 0.3827 -6.6293 103.5411)" cx="74.2" cy="56.7" rx="7" ry="7"/>
	<ellipse transform="matrix(0.3827 -0.9239 0.9239 0.3827 5.9215 122.3247)" cx="94.5" cy="56.7" rx="7" ry="7"/>
</g>
</svg>
